<svg width="81" height="80" viewBox="0 0 81 80" fill="none" xmlns="http://www.w3.org/2000/svg">
<ellipse cx="40.5" cy="40" rx="31.5" ry="31" fill="#6A928D"/>
<path d="M18.9886 61.1817C7.11788 49.4567 7.11788 30.48 18.9886 18.7542C30.8593 7.02834 50.0732 7.03 61.9464 18.7542C73.8188 30.4783 73.8172 49.455 61.9464 61.1817C50.0749 72.9075 30.861 72.9058 18.9886 61.1817ZM40.4671 12.0275C24.8687 12.0275 12.1778 24.5617 12.1778 39.9675C12.1778 55.3733 24.8687 67.9083 40.4671 67.9083C56.0655 67.9083 68.7572 55.3733 68.7572 39.9675C68.7572 24.5617 56.0655 12.0275 40.4671 12.0275Z" fill="white"/>
<path d="M50.4942 31.0925C48.5755 30.72 48.5831 28.0258 50.4942 27.6167C52.2366 27.2717 53.3621 29.4058 52.1125 30.6058C51.6881 31.025 51.0815 31.2067 50.4942 31.0925Z" fill="white"/>
<path d="M50.4892 57.7433H30.4442C26.0407 57.7375 22.4733 54.2142 22.4682 49.8658V30.0683C22.4733 25.7192 26.0407 22.1958 30.4442 22.1908H50.4892C54.8918 22.1958 58.4592 25.7192 58.4651 30.0683V49.8658C58.4592 54.2142 54.8918 57.7375 50.4892 57.7433ZM30.4442 24.2517C27.1915 24.255 24.5565 26.8575 24.5531 30.07V49.8658C24.5565 53.0775 27.1915 55.68 30.4442 55.6833H50.4892C53.741 55.68 56.376 53.0775 56.3794 49.8658V30.0683C56.376 26.8558 53.741 24.2533 50.4892 24.25H30.4442V24.2517Z" fill="white"/>
<path d="M40.4671 49.4742C35.1506 49.4742 30.8399 45.2167 30.8399 39.9658C30.8399 34.715 35.1506 30.4575 40.4671 30.4575C45.7836 30.4575 50.0926 34.7167 50.0926 39.9675C50.0875 45.215 45.7802 49.4692 40.4671 49.4742ZM40.4671 32.5208C36.3032 32.5208 32.9273 35.855 32.9273 39.9675C32.9273 44.08 36.3032 47.4142 40.4671 47.4142C44.631 47.4142 48.0068 44.08 48.0068 39.9675C48.0018 35.8567 44.6293 32.5258 40.4671 32.5208Z" fill="white"/>
</svg>
