<svg width="81" height="80" viewBox="0 0 81 80" fill="none" xmlns="http://www.w3.org/2000/svg">
<ellipse cx="40.5" cy="40" rx="32.5" ry="32" fill="#6A928D"/>
<path d="M18.2306 61.9154C5.92314 49.8026 5.92314 30.1983 18.2306 18.0846C30.538 5.97094 50.4587 5.97266 62.7688 18.0846C75.0779 30.1965 75.0762 49.8009 62.7688 61.9154C50.4605 74.0291 30.5397 74.0273 18.2306 61.9154ZM40.4992 11.1355C24.327 11.1355 11.1693 24.0842 11.1693 39.9996C11.1693 55.915 24.327 68.8645 40.4992 68.8645C56.6715 68.8645 69.8301 55.915 69.8301 39.9996C69.8301 24.0842 56.6715 11.1355 40.4992 11.1355Z" fill="white"/>
<mask id="mask0_2071_24" style="mask-type:luminance" maskUnits="userSpaceOnUse" x="25" y="21" width="31" height="38">
<path d="M25.488 21.8325H55.728V58.1525H25.488V21.8325Z" fill="white"/>
</mask>
<g mask="url(#mask0_2071_24)">
<path d="M43.1983 30.6942L49.3366 24.4617L52.8998 28.065L46.4603 34.1283H55.5188V39.1308H46.4172L52.8998 45.3492L49.3366 48.8825L40.5363 40.1483L31.736 48.8825L28.1728 45.3633L34.6553 39.145H25.5547V34.1283H34.6123L28.1728 28.065L31.736 24.4617L37.8751 30.6942V21.8325H43.1983V30.6942ZM37.8751 46.2967H43.1983V58.1683H37.8751V46.2967Z" fill="white"/>
</g>
</svg>
