<svg width="81" height="81" viewBox="0 0 81 81" fill="none" xmlns="http://www.w3.org/2000/svg">
<circle cx="40.5" cy="40.5" r="31.5" fill="#6A928D"/>
<path d="M18.9886 61.9464C7.11787 50.0749 7.11787 30.861 18.9886 18.9886C30.8593 7.11618 50.0732 7.11787 61.9464 18.9886C73.8188 30.8593 73.8172 50.0732 61.9464 61.9464C50.0749 73.8188 30.861 73.8172 18.9886 61.9464ZM40.4671 12.1778C24.8687 12.1778 12.1778 24.8687 12.1778 40.4671C12.1778 56.0655 24.8687 68.7572 40.4671 68.7572C56.0655 68.7572 68.7572 56.0655 68.7572 40.4671C68.7572 24.8687 56.0655 12.1778 40.4671 12.1778Z" fill="white"/>
<path d="M30.4206 35.1869H33.1906C33.2615 35.1869 33.329 35.2004 33.3939 35.2274C33.4589 35.2544 33.5163 35.2924 33.5661 35.3422C33.6158 35.3919 33.6547 35.4493 33.6817 35.5151C33.7087 35.5801 33.7222 35.6476 33.7222 35.7176V50.9566C33.7222 51.0275 33.7087 51.095 33.6817 51.1599C33.6547 51.2249 33.6158 51.2831 33.5661 51.3329C33.5163 51.3827 33.4589 51.4207 33.3939 51.4477C33.329 51.4747 33.2615 51.4882 33.1906 51.4882H30.4206C30.3497 51.4882 30.2822 51.4747 30.2172 51.4477C30.1514 51.4207 30.094 51.3827 30.0442 51.3329C29.9945 51.2831 29.9565 51.2249 29.9295 51.1599C29.9025 51.095 29.889 51.0275 29.889 50.9566V35.7176C29.889 35.6476 29.9025 35.5801 29.9295 35.5151C29.9565 35.4493 29.9945 35.3919 30.0442 35.3422C30.094 35.2924 30.1514 35.2544 30.2172 35.2274C30.2822 35.2004 30.3497 35.1869 30.4206 35.1869Z" fill="white"/>
<path d="M34.0369 31.4272C34.0327 30.121 33.0952 29.1735 31.8052 29.1735C30.5159 29.1735 29.5422 30.1455 29.5422 31.4364C29.5422 32.0364 29.7616 32.5949 30.159 33.0084C30.5674 33.4336 31.1302 33.6673 31.7427 33.6673C32.4211 33.6673 33.0269 33.4285 33.4488 32.9915C33.8437 32.5831 34.0521 32.0313 34.0377 31.4364C34.0377 31.4331 34.0369 31.4314 34.0369 31.4272Z" fill="white"/>
<path d="M49.2126 36.2585C47.833 35.0249 46.2164 34.8401 45.3752 34.8401C44.1188 34.8401 42.9216 35.1759 41.9124 35.8113C41.4712 36.0889 41.0729 36.4188 40.7168 36.7993L40.6468 35.6839C40.6426 35.6164 40.6266 35.5522 40.5979 35.4906C40.5683 35.4291 40.5295 35.3759 40.4806 35.3295C40.4308 35.2831 40.3743 35.2476 40.3118 35.2223C40.2486 35.1979 40.1836 35.1852 40.1161 35.1861H37.6616C37.5874 35.1861 37.5165 35.2004 37.449 35.2299C37.3815 35.2595 37.3224 35.3016 37.2718 35.3556C37.222 35.4096 37.1841 35.4721 37.1596 35.5413C37.136 35.6113 37.1258 35.683 37.1318 35.7564C37.2187 36.92 37.2558 38.1417 37.2558 39.8419V50.9566C37.2558 51.0275 37.2693 51.095 37.2963 51.1599C37.3233 51.2249 37.3621 51.2831 37.4119 51.3329C37.4617 51.3827 37.519 51.4207 37.584 51.4477C37.649 51.4746 37.7165 51.4881 37.7873 51.4881H40.5582C40.6283 51.4881 40.6966 51.4746 40.7616 51.4477C40.8265 51.4207 40.8839 51.3827 40.9337 51.3329C40.9835 51.2831 41.0223 51.2249 41.0493 51.1599C41.0763 51.095 41.0898 51.0275 41.0898 50.9566V41.7943C41.0898 41.364 41.1463 40.9598 41.2467 40.6856C41.2493 40.6772 41.2526 40.6679 41.2552 40.6586C41.6298 39.4369 42.7663 38.2008 44.4623 38.2008C45.5119 38.2008 46.2653 38.5594 46.7657 39.2976C47.2171 39.9651 47.4567 40.9598 47.4567 42.1715V50.9566C47.4567 51.0275 47.4702 51.095 47.4972 51.1599C47.5234 51.2249 47.5622 51.2831 47.612 51.3329C47.6618 51.3827 47.7191 51.4207 47.7841 51.4477C47.8491 51.4746 47.9174 51.4881 47.9874 51.4881H50.7583C50.8292 51.4881 50.8967 51.4746 50.9617 51.4477C51.0266 51.4207 51.084 51.3827 51.1338 51.3329C51.1844 51.2831 51.2224 51.2249 51.2494 51.1599C51.2764 51.095 51.2899 51.0275 51.2899 50.9566V41.8576C51.2899 40.5616 51.0941 39.4124 50.7077 38.4429C50.3609 37.5705 49.8572 36.8356 49.2126 36.2585Z" fill="white"/>
<mask id="mask0_2071_2" style="mask-type:luminance" maskUnits="userSpaceOnUse" x="21" y="21" width="39" height="39">
<path d="M21.6877 21.6017H59.1097V59.0237H21.6877V21.6017Z" fill="white"/>
</mask>
<g mask="url(#mask0_2071_2)">
<path d="M54.2692 21.6017H26.5638C23.8756 21.6017 21.6877 23.7895 21.6877 26.4786V54.1831C21.6877 56.8713 23.8756 59.0591 26.5638 59.0591H54.2692C56.9573 59.0591 59.1452 56.8713 59.1452 54.1831V26.4786C59.1452 23.7895 56.9573 21.6017 54.2692 21.6017ZM55.7212 26.7148V53.9468C55.7212 54.0574 55.7103 54.1671 55.6883 54.2759C55.6664 54.3847 55.6343 54.4902 55.5922 54.5923C55.55 54.6952 55.4977 54.7923 55.4361 54.8842C55.3745 54.9762 55.3044 55.0614 55.226 55.1399C55.1475 55.2184 55.0623 55.2884 54.9703 55.35C54.8783 55.4116 54.7813 55.4639 54.6784 55.5061C54.5763 55.5491 54.4708 55.5812 54.362 55.6023C54.2531 55.6242 54.1434 55.6352 54.0329 55.6352H26.8C26.6895 55.6352 26.5798 55.6242 26.471 55.6023C26.3621 55.5812 26.2567 55.5491 26.1546 55.5061C26.0525 55.4639 25.9546 55.4116 25.8626 55.35C25.7707 55.2884 25.6854 55.2184 25.607 55.1399C25.5285 55.0614 25.4585 54.9762 25.3969 54.8842C25.3353 54.7923 25.283 54.6952 25.2408 54.5923C25.1986 54.4902 25.1665 54.3847 25.1446 54.2759C25.1227 54.1671 25.1117 54.0574 25.1117 53.9468V26.7148C25.1117 26.6034 25.1227 26.4937 25.1446 26.3849C25.1665 26.2761 25.1986 26.1706 25.2408 26.0685C25.283 25.9664 25.3353 25.8685 25.3969 25.7766C25.4585 25.6846 25.5285 25.5994 25.607 25.5209C25.6854 25.4424 25.7707 25.3724 25.8626 25.3108C25.9546 25.2492 26.0525 25.1977 26.1546 25.1547C26.2567 25.1125 26.3621 25.0805 26.471 25.0585C26.5798 25.0366 26.6895 25.0265 26.8 25.0256H54.0329C54.1434 25.0265 54.2531 25.0366 54.362 25.0585C54.4708 25.0805 54.5763 25.1125 54.6784 25.1547C54.7813 25.1977 54.8783 25.2492 54.9703 25.3108C55.0623 25.3724 55.1475 25.4424 55.226 25.5209C55.3044 25.5994 55.3745 25.6846 55.4361 25.7766C55.4977 25.8685 55.55 25.9664 55.5922 26.0685C55.6343 26.1706 55.6664 26.2761 55.6883 26.3849C55.7103 26.4937 55.7212 26.6034 55.7212 26.7148Z" fill="white"/>
</g>
</svg>
