<?xml version="1.0" encoding="UTF-8"?>
<svg id="Layer_1" data-name="Layer 1" xmlns="http://www.w3.org/2000/svg" viewBox="0 0 2541.77 5165.44">
  <defs>
    <style>
      .cls-1 {
        fill: #772119;
        stroke-width: 0px;
      }
    </style>
  </defs>
  <path class="cls-1" d="M2541.77,0c-32.59,60.34-246.5,431.19-492.74,257.2-531.66-375.67-364.16,566.53-305.15,726.19,59,159.67-105.56,94.26-327.02,409.06-221.46,314.79,1241-360.35,943.02,123.87-73.01,118.64-88.22,198.14-65.54,248.4h-746.64s-383.38-20.45-601.57-221.85c-99.7-92.02-221.44-133.03-324.27-150.42v372.27h-1.08v982.77s479.48,96.38,968.69-245.74c21.82-15.26,40.36-29.25,55.91-42.08h895.4v-626.5c.33-.04.67-.07,1-.11V0Z"/>
  <path class="cls-1" d="M1418.66,4311.04c59.01-159.66,157.51-1165.64-374.15-789.97-246.24,173.99-391.15-133.08-423.74-193.42v1833.06c207.14,24.2,352.73-39.11,181.89-316.74-297.98-484.22,1089.19,369.35,867.73,54.56-221.46-314.8-310.73-427.82-251.73-587.49Z"/>
  <path class="cls-1" d="M967.6,734.26c-72.28-268.99-238.72-473.56-398.2-616.41L0,1020.21s1125.77,302.75,967.6-285.95Z"/>
</svg>